<svg xmlns="http://www.w3.org/2000/svg" width="66.5" height="66.5" viewBox="0 0 66.5 66.5"><path fill="#127DC0" d="M18.327 39.1c0 3.432 2.628 3.552 2.628 3.552.188.106.337.176.337.36 0 .178-.146.325-.326.325H10.01c-.182 0-.328-.147-.328-.326 0-.183.15-.252.336-.358 0 0 2.628-.122 2.628-3.553V18.136c0-3.432-2.628-3.552-2.628-3.552-.186-.11-.336-.178-.336-.36s.146-.327.327-.327h10.957c.18 0 .325.147.325.327 0 .18-.15.248-.337.36 0 0-2.628.122-2.628 3.552V39.1zm34.398-3.352l1.648-17.662c.483-3.5 2.63-3.55 2.63-3.55.19-.11.337-.18.337-.36 0-.183-.147-.328-.33-.328H46.058c-.182 0-.326.146-.326.327 0 .18.15.25.34.36 0 0 2.673-.05 2.625 3.55l-1.23 17.25s-.343 4.933-2.818 4.933c-2.48 0-2.82-4.932-2.82-4.932L40.593 18.12c-.046-3.604 2.63-3.552 2.63-3.552.186-.11.335-.18.335-.36 0-.183-.147-.327-.326-.327h-10.96c-.18 0-.326.147-.326.328 0 .18.15.248.338.36 0 0 2.147.053 2.63 3.55l1.645 17.665s.457 8.255 8.086 8.255c7.62.004 8.08-8.29 8.08-8.29zM19.377 49.9c.072 1.835.197 2.725.314 5.114.17 3.482-1.053 4.178-.882 4.62.09.233.43.237.998.142.57-.095 1.816-.23 3-.14 1.91.136 4.875 1.254 7.308 1.254 4.267 0 8.228-2.95 8.228-8.208 0-2.97-1.63-5.455-3.23-7.086-2.794-2.846-4.222-3.736-5.77-4.926-3.475-2.67-4.468-4.012-4.468-6.236 0-.78.77-3.07 3.4-3.07 1.99 0 3.98 1.402 4.687 4.497.61 2.657.58 4.337.626 5.022.043.653-.03.882.274.936.38.065.43-.18.475-.57.168-1.508.063-3.362-.118-6.603-.188-3.333-.02-3.722.214-4.847.127-.61.377-1.44.093-1.503-.298-.065-.787 1.118-1.785 1.118-.997 0-2.208-1.186-5.198-1.186-3.753 0-7.253 3.04-7.253 7.02 0 4.43 2.732 7.053 6.458 10.397 3.742 3.36 5.712 4.762 5.712 7.783 0 3.373-2.932 4.262-4.34 4.262-4.666 0-6.73-3.893-7.378-6.22-.996-3.578.104-6.16-.31-6.417-.234-.146-.44.038-.587.54-.392 1.33-.512 3.157-.466 4.308M1.553 33.25c0 17.477 14.22 31.697 31.697 31.697 17.477 0 31.7-14.22 31.7-31.697 0-17.478-14.224-31.697-31.7-31.697-17.478 0-31.697 14.22-31.697 31.697M33.25 0C51.586 0 66.5 14.916 66.5 33.25c0 18.335-14.915 33.25-33.25 33.25C14.916 66.5 0 51.585 0 33.25 0 14.916 14.916 0 33.25 0z"/></svg>