<?xml version="1.0" encoding="utf-8"?>
<!-- Generator: Adobe Illustrator 15.1.0, SVG Export Plug-In . SVG Version: 6.00 Build 0)  -->
<!DOCTYPE svg PUBLIC "-//W3C//DTD SVG 1.1//EN" "http://www.w3.org/Graphics/SVG/1.1/DTD/svg11.dtd">
<svg version="1.1" id="Calque_1" xmlns="http://www.w3.org/2000/svg" xmlns:xlink="http://www.w3.org/1999/xlink" x="0px" y="0px"
	 width="66.5px" height="66.5px" viewBox="0 0 66.5 66.5" enable-background="new 0 0 66.5 66.5" xml:space="preserve">
<path fill="#127DC0" d="M18.327,39.099c0,3.433,2.628,3.553,2.628,3.553c0.188,0.106,0.337,0.176,0.337,0.359
	c0,0.179-0.146,0.326-0.326,0.326h-5.479h-5.478c-0.181,0-0.327-0.147-0.327-0.326c0-0.184,0.15-0.253,0.336-0.359
	c0,0,2.628-0.122,2.628-3.553V18.137c0-3.432-2.628-3.552-2.628-3.552c-0.186-0.11-0.336-0.178-0.336-0.36
	c0-0.182,0.146-0.327,0.327-0.327h5.478h5.479c0.18,0,0.326,0.147,0.326,0.327c0,0.181-0.15,0.248-0.337,0.36
	c0,0-2.628,0.122-2.628,3.552V39.099z M52.725,35.748l1.648-17.662c0.483-3.499,2.63-3.551,2.63-3.551
	c0.189-0.11,0.337-0.179,0.337-0.36c0-0.182-0.147-0.327-0.329-0.327h-5.339h-5.615c-0.182,0-0.326,0.146-0.326,0.327
	c0,0.18,0.148,0.249,0.34,0.36c0,0,2.672-0.049,2.624,3.551l-1.229,17.25c0,0-0.344,4.932-2.819,4.932
	c-2.479,0-2.821-4.932-2.821-4.932l-1.232-17.217c-0.046-3.603,2.629-3.551,2.629-3.551c0.187-0.11,0.336-0.179,0.336-0.36
	c0-0.183-0.146-0.327-0.325-0.327h-5.619h-5.34c-0.18,0-0.327,0.146-0.327,0.327c0,0.179,0.151,0.248,0.338,0.36
	c0,0,2.147,0.053,2.629,3.551l1.646,17.664c0,0,0.456,8.255,8.085,8.255C52.267,44.042,52.725,35.748,52.725,35.748z M19.377,49.901
	c0.072,1.834,0.197,2.724,0.314,5.113c0.168,3.482-1.054,4.178-0.883,4.621c0.09,0.232,0.43,0.236,0.998,0.141
	c0.571-0.095,1.816-0.229,2.999-0.141c1.911,0.137,4.876,1.255,7.309,1.255c4.267,0,8.228-2.951,8.228-8.208
	c0-2.97-1.631-5.455-3.231-7.086c-2.793-2.846-4.221-3.736-5.769-4.926c-3.475-2.669-4.468-4.012-4.468-6.236
	c0-0.781,0.77-3.071,3.4-3.071c1.989,0,3.98,1.403,4.687,4.498c0.608,2.656,0.578,4.336,0.625,5.021
	c0.043,0.653-0.031,0.882,0.274,0.936c0.379,0.065,0.431-0.18,0.475-0.569c0.168-1.509,0.063-3.363-0.118-6.604
	c-0.188-3.333-0.021-3.722,0.214-4.847c0.126-0.61,0.376-1.439,0.092-1.503c-0.298-0.065-0.787,1.118-1.785,1.118
	c-0.997,0-2.208-1.186-5.198-1.186c-3.753,0-7.253,3.039-7.253,7.021c0,4.43,2.732,7.052,6.458,10.396
	c3.742,3.359,5.712,4.762,5.712,7.783c0,3.373-2.932,4.262-4.34,4.262c-4.666,0-6.73-3.892-7.378-6.218
	c-0.995-3.579,0.105-6.162-0.308-6.418c-0.235-0.146-0.441,0.038-0.588,0.539C19.451,46.922,19.331,48.75,19.377,49.901
	 M1.553,33.25c0,17.477,14.219,31.697,31.697,31.697c17.477,0,31.699-14.221,31.699-31.697c0-17.478-14.223-31.697-31.699-31.697
	C15.772,1.553,1.553,15.772,1.553,33.25 M33.25,0C51.586,0,66.5,14.916,66.5,33.25c0,18.335-14.915,33.25-33.25,33.25
	C14.916,66.5,0,51.585,0,33.25C0,14.916,14.916,0,33.25,0z"/>
</svg>
